<svg width="36" height="36" viewBox="0 0 36 36" fill="none" xmlns="http://www.w3.org/2000/svg">
<g id="chevron-up-outline 2">
<g id="Group">
<g id="Layer 2">
<path id="chevron-up" d="M12 14.25C12.1974 14.2489 12.3931 14.2867 12.5759 14.3613C12.7586 14.436 12.9248 14.546 13.065 14.685L18 19.65L22.95 14.88C23.231 14.6006 23.6112 14.4438 24.0075 14.4438C24.4038 14.4438 24.784 14.6006 25.065 14.88C25.2056 15.0194 25.3172 15.1854 25.3933 15.3681C25.4695 15.5509 25.5087 15.747 25.5087 15.945C25.5087 16.143 25.4695 16.3391 25.3933 16.5219C25.3172 16.7047 25.2056 16.8706 25.065 17.01L19.065 22.8C18.7846 23.0748 18.4076 23.2288 18.015 23.2288C17.6224 23.2288 17.2454 23.0748 16.965 22.8L10.965 16.8C10.8244 16.6606 10.7128 16.4947 10.6367 16.3119C10.5605 16.1291 10.5213 15.933 10.5213 15.735C10.5213 15.537 10.5605 15.3409 10.6367 15.1581C10.7128 14.9753 10.8244 14.8094 10.965 14.67C11.2431 14.402 11.6138 14.2515 12 14.25Z" fill="#425F6A"/>
</g>
</g>
</g>
</svg>
