<svg width="22" height="23" viewBox="0 0 22 23" fill="none" xmlns="http://www.w3.org/2000/svg">
<g id="icn bxs-star">
<path id="Vector" d="M20.1227 8.41927C20.065 8.24946 19.9589 8.10025 19.8174 7.99006C19.6759 7.87987 19.5053 7.81353 19.3265 7.79922L14.0974 7.38371L11.8345 2.3747C11.7625 2.21337 11.6453 2.07634 11.497 1.98016C11.3488 1.88397 11.1759 1.83274 10.9992 1.83264C10.8225 1.83254 10.6496 1.88359 10.5013 1.97961C10.3529 2.07563 10.2356 2.21253 10.1633 2.37378L7.90052 7.38371L2.67137 7.79922C2.49567 7.81314 2.32771 7.87738 2.18757 7.98425C2.04744 8.09113 1.94106 8.23612 1.88116 8.40187C1.82127 8.56762 1.81039 8.74712 1.84984 8.91889C1.88929 9.09066 1.97739 9.24743 2.1036 9.37044L5.9679 13.1375L4.60123 19.0555C4.55973 19.2347 4.57303 19.4221 4.6394 19.5936C4.70577 19.7651 4.82215 19.9127 4.97344 20.0172C5.12473 20.1217 5.30394 20.1783 5.48781 20.1797C5.67168 20.1811 5.85173 20.1272 6.00459 20.025L10.9989 16.6955L15.9933 20.025C16.1495 20.1288 16.3338 20.1822 16.5213 20.1781C16.7088 20.1739 16.8905 20.1125 17.042 20.002C17.1936 19.8916 17.3076 19.7373 17.3689 19.5601C17.4302 19.3828 17.4357 19.1911 17.3847 19.0106L15.7071 13.1403L19.8677 9.39612C20.1401 9.15031 20.2401 8.7669 20.1227 8.41927Z" fill="#E77C40"/>
</g>
</svg>
